<?xml version="1.0" standalone="no"?>
<!DOCTYPE svg PUBLIC "-//W3C//DTD SVG 20010904//EN"
 "http://www.w3.org/TR/2001/REC-SVG-20010904/DTD/svg10.dtd">
<svg version="1.0" xmlns="http://www.w3.org/2000/svg"
 width="256.000000pt" height="256.000000pt" viewBox="0 0 256.000000 256.000000"
 preserveAspectRatio="xMidYMid meet">

<g transform="translate(0.000000,256.000000) scale(0.100000,-0.100000)"
fill="#000000" stroke="none">
<path d="M1040 1301 c0 -87 3 -173 6 -190 6 -30 8 -31 60 -31 l53 0 3 81 3 81
43 -67 c37 -58 45 -66 69 -63 21 2 35 17 67 71 l41 67 3 -85 3 -85 53 0 54 0
3 103 c3 56 3 141 1 190 l-4 87 -49 0 -48 0 -57 -95 c-31 -53 -60 -98 -65
-100 -4 -3 -36 40 -70 95 l-62 100 -54 0 -53 0 0 -159z"/>
</g>
</svg>
